<svg xmlns="http://www.w3.org/2000/svg" width="925.454" height="306.903" viewBox="0 0 925.454 306.903">

    <path fill-rule="evenodd" clip-rule="evenodd" d="M321.52 149.854c9.33-13.36 21.12-23.797 36.167-30.33 11.23-4.88 22.69-7.417 35-4.26 1.8.46 4.755-1.07 6.27-2.585 2.483-2.48 5.31-4.552 8.242-2.748 1.92 1.182 3.59 4.723 3.38 7.024-.477 5.197-1.863 10.39-3.5 15.38-1.47 4.485-3.765 8.702-5.695 13.037l1.397 1.17c4.924-4.52 10.36-8.602 14.666-13.65 9.18-10.765 17.65-22.134 26.696-33.02 2.213-2.665 3.932-7.975 8.607-5.747 3.028 1.443 4.912 5.287 7.275 8.017 3.892-3.387 8.23-8.438 13.67-11.594 7.964-4.62 16.38-9.226 25.203-11.432 16.942-4.237 27.372 4.395 28.422 21.93.277 4.63.042 9.29.042 14.854 9.292-1.22 18.328-2.03 27.188-3.752 3.556-.69 7.045-2.963 9.993-5.25 4.717-3.66 9.465-3.833 14.463-1.344 4.96 2.47 5.234 7.267 4.34 11.73-1.37 6.822-3.512 13.492-5.353 20.22-1.168 4.27-2.383 8.524-3.83 13.69 23.76-5.81 36.153-24.772 51.845-39.686 6.504 4.062 13.46 3.317 20.47 2.87 4.785-.307 9.71-.5 14.403.28 8.087 1.342 11.75 6.05 11.42 14.178-.183 4.55-1.225 9.063-2.066 14.888 5.038-3.663 10.07-6.69 14.344-10.555 10.65-9.632 17.61-22.06 24.796-34.262C715.71 88.15 721.79 77.24 728.37 66.636c2.87-4.627 6.327-9.032 10.184-12.87 6.05-6.02 13.457-8.216 22.028-6.005 2.975.77 3.93 2.218 3.992 5.167.172 8.237-2.642 15.41-7.68 21.667-3.645 4.53-7.532 8.945-11.802 12.88-10.036 9.246-16.97 20.392-21.742 33.063-4.023 10.683-8.256 21.287-12.858 33.115 3.446-2.488 5.963-4.51 8.675-6.226 8.422-5.325 16.72-10.896 25.458-15.654 5.307-2.89 11.724-4.588 16.876.12 5.5 5.028 6.01 11.94 3.102 18.47-3.442 7.72-7.514 15.19-11.744 22.52-5.288 9.16-9.953 18.46-10.81 29.225-.063.823-.346 1.628-.512 2.444-1.805 8.91-4.28 10.888-12.726 10.168-7.098-.605-11.212-5.08-11.218-12.753-.01-13.465 5.73-25.124 11.937-36.6.704-1.305 1.422-2.604 2.114-3.915.06-.113-.03-.305-.086-.724-4.78-.595-8.27 2.102-11.3 5.077-4.267 4.193-8.014 8.91-12.124 13.27-3.875 4.11-7.668 8.366-11.98 11.98-4.8 4.022-10.54 5.33-16.224 1.825-5.46-3.365-6.095-9.122-5.054-14.646 1.218-6.464 3.456-12.734 5.3-19.258-.944.35-2.43.828-3.857 1.437-21.342 9.096-43.44 14.662-66.775 15.21-2.77.064-6.486 2.327-8.005 4.697-3.922 6.123-6.96 12.826-10.162 19.39-4.3 8.818-8.21 17.834-12.728 26.534-1.723 3.318-4.41 6.27-7.126 8.9-3.086 2.992-6.97 3.622-11.125 1.965-4.1-1.636-5.86-4.15-4.908-8.854 2.25-11.105 6.874-21.138 12.694-30.74 4.36-7.192 8.546-14.488 12.942-21.964-6.79-.64-12.743-.727-18.487-1.867-6.254-1.244-10.62-5.294-12.397-12.064-7.517 7.66-16.03 12.55-26.075 14.73-14.866 3.224-23.66-3.7-22.84-18.783.583-10.7 3.348-20.847 13.015-27.328 4.54-3.044 5.217-6.126 2.683-11.132-3.505-6.923-6.014-14.35-9.092-21.915-9.917 2.513-17.82 8.63-24.245 16.692-13.422 16.843-20.59 36.732-27.245 56.856-1.93 5.83-3.665 11.805-6.363 17.283-4.36 8.855-12.866 10.613-20.812 4.72-1.135-.843-1.938-2.626-2.183-4.09-1.614-9.722.877-18.86 4.57-27.7 2.886-6.9 6.19-13.628 9.22-20.472.908-2.05 1.525-4.228 2.275-6.347-.366-.213-.73-.427-1.097-.642-2.91 3.556-6.164 6.888-8.67 10.708-7.9 12.04-17.8 21.96-29.99 29.608-16.087 10.093-28.005 23.734-36.245 40.918-11.184 23.323-29.974 37.36-55.164 42.672-6.935 1.463-13.904.968-20.233-3.11-2.938-1.892-3.818-4.136-3.145-7.55 2.696-13.662 9.363-25.056 20.427-33.315 9.178-6.852 19.15-12.638 28.772-18.893 4.42-2.872 8.842-5.738 12.943-9.44-3.687.216-7.377.37-11.06.656-17.166 1.327-26.065-15.15-20.663-29.08.898-2.314 1.77-4.64 2.653-6.96l-.16.15zm298.11 8.627c15.252-5.787 29.46-11.097 35.906-27.292-14.657-.583-29.1 10.31-35.906 27.293zm-271.832-.01c14.848-1.232 32.297-13.398 31.504-21.615-13.208 2.907-26.03 6.158-31.504 21.616zm179.938-10.49c11.258-4.745 21.778-9.566 25.506-22.482-11.93-.034-22.06 8.802-25.506 22.48zm-204.702 86.215c11.234-3.5 21.29-8.44 27.08-19.08-8.346 5.106-16.297 10.75-24.213 16.44-1.046.753-1.915 1.754-2.866 2.64z"/>

    <path fill-rule="evenodd" clip-rule="evenodd" d="M321.682 149.705c-1.084 1.353-2.342 2.6-3.225 4.074-6.26 10.44-14.018 19.504-24.538 25.82-15.683 9.414-28.047 6.2-37.428-9.445-.33-.552-.707-1.076-1.528-2.32-3.422 2.14-6.76 4.172-10.042 6.288-3.35 2.16-6.427 4.886-10.01 6.51-9.62 4.36-20.426-.33-22.04-10.84-1.464-9.52-.37-19.464-.02-29.206.122-3.43 1.378-6.82 2.214-10.675-5.663-.68-7.608 3.176-8.24 7.18-1.708 10.828-7.92 18.953-15.132 26.43-10.98 11.385-23.925 18.892-40.282 19.477-4.214.15-5.972-1.744-7.2-5.247-2.2-6.285-2.14-12.672.737-25.41-1.984.783-3.59 1.36-5.15 2.044-20.474 8.966-41.23 17.352-63.614 19.745-7.803.834-12.127 4.257-15.108 10.636-5.628 12.043-11.103 24.157-16.73 36.2-2.74 5.857-5.376 11.8-8.633 17.367-2.4 4.1-6.18 6.57-11.395 4.83-5.064-1.69-6.42-5.806-5.827-10.354.812-6.223 1.534-12.664 3.733-18.467 12.337-32.54 28.13-63.277 50.293-90.316 4.765-5.814 11.102-10.432 17.104-15.1 2.364-1.837 5.717-2.715 8.76-3.296 4.385-.838 8.157.18 10.283 4.898 1.838 4.08 5.18 6.406 9.848 6.496 12.098.23 15.528 1.428 17.362 17.73.128 1.14.13 2.29.254 4.603 3.8-2.62 7.08-4.65 10.096-7.013 6.948-5.442 13.596-11.28 20.68-16.536 13.033-9.668 26.69-12.42 41.203-2.833 1.054.696 3.192.51 4.492-.048 6.12-2.623 10.1-7.575 12.953-13.344 2.873-5.806 5.05-11.957 7.954-17.747 6.846-13.66 13.476-27.465 21.096-40.69 5.5-9.55 13.49-16.92 24.815-19.594 4.846-1.144 10.545 3.634 9.984 8.65-1.664 14.875-7.124 28.397-15.625 40.583-6.762 9.69-14.095 18.987-21.25 28.402-12.248 16.122-20.53 33.816-21.726 54.34-.144 2.462-.02 4.94-.02 7.98 5.715-.876 10.4-3.405 13.87-7.422 6.734-7.8 13.284-15.797 19.385-24.1 9.308-12.667 21.164-21.077 36.83-23.554 3.753-.593 7.638-.755 11.438-.58 11.504.522 17.118 6.68 15.583 18.13-.982 7.335-3.48 14.468-5.303 21.69-.353 1.398-.72 2.794-1.073 4.187.006-.003.168-.152.168-.152zm-47.922 17.777c15.4-2.072 30.63-20.39 31.282-37.3-13.715-.08-34.994 14.744-31.282 37.3zm-85.563-40.202c-13.177 3.932-27.766 24.337-29.177 40.81 19.922-9.463 32.327-26.814 29.177-40.81zm-72.28 7.236c-12.058-2.89-29.62 9.962-32.37 22.143 11.993-5.94 26.538-7.38 32.37-22.144zM798.368 134.574c8.302-9.785 18.233-16.89 30.943-18.923 5.78-.924 11.86.138 17.806.13 3.335-.006 6.867.284 9.965-.676 7.448-2.31 11.42-1.046 14.656 5.918.467 1.007.137 2.563-.223 3.744-1.886 6.19-3.9 12.34-6.128 19.318 3.327-.605 6.35-.978 9.28-1.724 8.216-2.092 16.34-4.574 24.606-6.424 4.176-.935 8.59-1.146 12.88-1.06 1.93.04 5.164 1.306 5.45 2.554.554 2.424.235 5.82-1.184 7.72-1.646 2.206-4.68 3.93-7.43 4.664-15.092 4.033-28.83 10.996-42.388 18.506-2.99 1.656-6.5 2.728-9.895 3.223-7.924 1.156-12.204-3.88-15.02-9.335-8.032 3-15.625 6.925-23.687 8.625-17.848 3.763-27.262-6.156-23.84-24.04.123-.642.154-1.3.23-1.95l-1.36-.55c-3.86 8.898-7.963 17.7-11.5 26.724-2.48 6.328-3.787 13.127-6.4 19.39-1.545 3.698-4.023 7.603-7.195 9.83-2.353 1.652-6.605 1.305-9.783.68-1.02-.198-1.86-4.132-1.842-6.35.147-18.235 6.3-34.95 14.087-51.028 3.886-8.024 9.004-15.5 14.033-22.906 3.43-5.054 6.264-4.81 12.647-2.144 5.56 2.324 4.084 6.438 3.127 10.48-.45 1.905-1.212 3.738-1.832 5.604zm46.755-1.935c-14.736-2.1-28.77 7.267-29.303 20.08 13-1.647 23.22-7.213 29.303-20.08zM786.235 97.807c3.766-7.934 9.74-13.546 18.425-15.928 1.98-.545 4.375-.456 6.373.09 5.893 1.613 7.8 7.713 4.09 12.442-6.18 7.883-22.662 11.823-28.888 3.395z"/>

</svg>
